:SAMPLES-PER-SECOND 30
:FULLY-SPECIFIED
:DEGREES
278
root  38.7521 37.7772 -7.8804 159.197 79.7662 162.478
RightUpLeg  -20.4183 -15.3943 -1.48205
RightLeg  8.29426 -42.9902 5.07077
RightFoot  -0.0495232 1.39112 -14.1719
RightToes  0.00048216 0.542163 -0.142577
Spine  11.0014 -3.7908 -2.46081
Spine1  9.39912 -5.64432 4.85165
HEad  -15.4814 -12.292 3.90761
LeftShoulder1  9.21674 -14.329 -45.0407
LeftArm  11.109 -35.3605 -42.0202
LeftForeArm  47.6032 -49.6392 -9.63625
LeftHand  -0.25398 0.0180481 5.50724
RightShoulder  4.23244 7.62126 32.0995
RightArm  -12.8815 -25.3597 38.3454
RightForeArm  11.1639 28.6917 5.60823
RightHand  -0.663474 0.218521 -13.6167
LeftUpLeg  21.0156 15.07 5.3488
LeftLeg  22.7222 -6.99433 -2.77508
LeftFoot  -14.9559 -0.207292 -9.97634
LeftToes  1.06247e-005 4.65855e-005 -8.185e-006
279
root  40.4024 37.5928 -7.94239 -170.279 85.9755 -167.163
RightUpLeg  -25.2419 -27.0152 9.86939
RightLeg  17.6384 -23.2384 -1.56797
RightFoot  -0.165841 1.82792 -18.5625
RightToes  0.00048216 0.542163 -0.142577
Spine  11.841 -2.96854 2.79076
Spine1  7.38406 -4.00086 4.59535
HEad  -15.274 -10.5237 0.95219
LeftShoulder1  9.34256 -14.3443 -45.64
LeftArm  8.06547 -29.6889 -39.809
LeftForeArm  51.6281 -54.5279 -11.4895
LeftHand  -0.25398 0.0180481 5.50724
RightShoulder  4.3443 7.99289 31.8487
RightArm  -15.403 -23.477 37.9566
RightForeArm  1.9774 27.7146 5.87869
RightHand  -1.00939 1.65212 -16.8809
LeftUpLeg  17.629 16.9798 9.48186
LeftLeg  33.2412 -6.00593 -3.83572
LeftFoot  -6.38071 0.587166 -13.0571
LeftToes  1.06247e-005 4.65855e-005 -8.185e-006
280
root  41.8482 37.4178 -7.79363 -86.9005 88.0657 -83.8441
RightUpLeg  -27.2325 -30.1099 16.538
RightLeg  22.4121 -14.4269 -5.19023
RightFoot  -3.23139 1.32049 -18.6506
RightToes  0.00048216 0.542163 -0.142577
Spine  13.1069 -2.53092 2.75503
Spine1  6.03417 -4.1124 8.4767
HEad  -14.1268 -7.66737 -0.545948
LeftShoulder1  9.34682 -14.3547 -45.6339
LeftArm  4.79556 -22.7554 -37.7122
LeftForeArm  53.8072 -57.4522 -12.8577
LeftHand  -0.25398 0.0180481 5.50724
RightShoulder  4.37672 8.38929 30.8475
RightArm  -14.8566 -20.593 38.0451
RightForeArm  -0.221619 27.5365 5.9509
RightHand  -0.868021 1.15328 -15.303
LeftUpLeg  11.046 15.8221 10.9117
LeftLeg  45.6845 -3.97733 -3.93681
LeftFoot  8.22611 2.17033 -12.8621
LeftToes  1.06247e-005 4.65855e-005 -8.185e-006
281
root  43.0833 37.2578 -7.62535 -51.2576 85.4432 -48.0706
RightUpLeg  -25.6427 -27.1442 16.5576
RightLeg  26.0261 -15.9033 -6.27911
RightFoot  -6.72644 0.660755 -17.3831
RightToes  0.00048216 0.542163 -0.142577
Spine  13.9403 -3.08326 1.4914
Spine1  6.08166 -5.3757 12.6988
HEad  -12.2292 -5.24046 0.210641
LeftShoulder1  9.29382 -14.2693 -45.5917
LeftArm  3.15651 -16.9904 -35.3548
LeftForeArm  53.7628 -57.5366 -12.936
LeftHand  -0.25398 0.0180481 5.50724
RightShoulder  4.31619 8.37799 30.3696
RightArm  -13.3824 -17.8672 38.5734
RightForeArm  4.94352 29.7971 6.22184
RightHand  -0.457161 -0.762466 -11.4729
LeftUpLeg  3.22504 11.7653 10.5798
LeftLeg  57.0647 -2.45822 -3.60198
LeftFoot  19.3828 3.36724 -12.653
LeftToes  1.06247e-005 4.65855e-005 -8.185e-006
282
root  44.4511 37.3652 -7.56823 -36.1068 82.0937 -32.7253
RightUpLeg  -22.6207 -24.3824 15.7226
RightLeg  27.3656 -15.7961 -5.58877
RightFoot  -8.68775 0.324186 -16.4334
RightToes  0.00048216 0.542163 -0.142577
Spine  13.7997 -3.47066 2.06693
Spine1  6.76819 -5.58723 12.9511
HEad  -10.5538 -4.0305 1.77524
LeftShoulder1  9.31253 -14.1274 -46.0672
LeftArm  2.81097 -12.7897 -32.2377
LeftForeArm  53.5244 -55.977 -12.0907
LeftHand  -0.25398 0.0180481 5.50724
RightShoulder  4.24377 8.02322 30.8664
RightArm  -11.2619 -16.4994 39.0175
RightForeArm  10.4237 34.8364 7.22325
RightHand  -0.366195 -1.49337 -10.6566
LeftUpLeg  -3.13972 8.98658 10.1318
LeftLeg  65.4494 -1.57721 -3.12165
LeftFoot  21.6408 3.53953 -12.3678
LeftToes  1.06247e-005 4.65855e-005 -8.185e-006
283
root  45.9813 37.7238 -7.52955 -20.6247 76.3285 -17.1646
RightUpLeg  -18.6753 -20.6411 14.7801
RightLeg  26.613 -13.2874 -4.26494
RightFoot  -9.68206 0.162261 -15.5479
RightToes  0.00048216 0.542163 -0.142577
Spine  13.0754 -2.87418 3.06728
Spine1  7.16508 -4.3099 10.7153
HEad  -9.55782 -3.0648 2.39262
LeftShoulder1  9.31044 -13.8867 -46.712
LeftArm  2.04116 -8.25974 -29.0642
LeftForeArm  54.5681 -54.8837 -11.4484
LeftHand  -0.25398 0.0180481 5.50724
RightShoulder  4.2419 7.80304 31.5696
RightArm  -8.26134 -16.5889 39.1523
RightForeArm  12.3666 41.1978 9.01205
RightHand  -0.513755 -0.991279 -13.3966
LeftUpLeg  -7.87805 9.06338 9.63194
LeftLeg  70.2944 -0.804227 -1.65783
LeftFoot  18.7303 2.62727 -10.1722
LeftToes  1.06247e-005 4.65855e-005 -8.185e-006
284
root  47.4931 38.0741 -7.42715 -11.8643 69.3896 -8.49902
RightUpLeg  -15 -15.6243 13.1588
RightLeg  25.7267 -11.1396 -3.20181
RightFoot  -10.8477 -0.0102438 -14.3851
RightToes  0.00048216 0.542163 -0.142577
Spine  12.2539 -2.01885 2.58795
Spine1  7.27696 -3.13957 9.45747
HEad  -8.81439 -1.26533 1.96768
LeftShoulder1  9.12901 -13.4824 -46.8943
LeftArm  0.0412182 -2.12251 -26.8093
LeftForeArm  55.3577 -55.0493 -11.4777
LeftHand  -0.25398 0.0180481 5.50724
RightShoulder  4.33068 7.92163 31.9606
RightArm  -4.96887 -17.4701 39.0295
RightForeArm  13.6972 47.5289 11.2711
RightHand  -0.586832 -0.979242 -15.342
LeftUpLeg  -12.1105 9.58444 8.71175
LeftLeg  72.1954 0.146545 1.4464
LeftFoot  15.7858 1.59956 -7.04446
LeftToes  1.06247e-005 4.65855e-005 -8.185e-006
